# xmcd
#
# Track frame offsets:
#	150
#	12968
#	25198
#	37608
#	48473
#	61313
#	75135
#	89112
#	103486
#	117461
#	129822
#	141845
#	154055
#	165822
#	178034
#	188947
#	200240
#	213030
#	223143
#	233977
#	246657
#	257491
#	271180
#	285457
#	298691
#	308476
#	317849
#	329071
#	341467
#
# Disc length: 4730 seconds
# Revision: 2
# Processed by: cddbd v1.5.2PL0 Copyright (c) Steve Scherf et al.
# Submitted via: dBpowerAMP V12.0
#
DISCID=a712781d
DTITLE=Mercy Dee Walton - Masterly Texas Blues 1949 - 1955
DYEAR=2009
DGENRE=Blues
TTITLE0=G.I. Fever (Baba-Du-Lay-Fever)
TTITLE1=Lonesome Cabin Blues
TTITLE2=Evil and Hanky
TTITLE3=Travelin' Alone Blues
TTITLE4=Homely Baby
TTITLE5=Empty Life
TTITLE6=Please Understand (All Over)
TTITLE7=Bird Brain Baby
TTITLE8=Bi Foot Country
TTITLE9=Danger Zone (Crepe on Your Door)
TTITLE10=Roamin' Blues
TTITLE11=Straight and Narrow
TTITLE12=Bought Love
TTITLE13=Old Fashioned Ways
TTITLE14=Happy Bachelor
TTITLE15=Pay Off (Anything in the World)
TTITLE16=One Room Country Shack
TTITLE17=My Woman Knows the Score
TTITLE18=Rent Man Blues
TTITLE19=Fall Guy
TTITLE20=Get to Gettin'
TTITLE21=Dark Muddy Bottom
TTITLE22=Trailing My Baby
TTITLE23=The Main Event
TTITLE24=Romp and Stomp Blues
TTITLE25=Oh Oh Please
TTITLE26=Come Back Maybellene
TTITLE27=Have You Ever
TTITLE28=Stubborn Woman
EXTD=
EXTT0=
EXTT1=
EXTT2=
EXTT3=
EXTT4=
EXTT5=
EXTT6=
EXTT7=
EXTT8=
EXTT9=
EXTT10=
EXTT11=
EXTT12=
EXTT13=
EXTT14=
EXTT15=
EXTT16=
EXTT17=
EXTT18=
EXTT19=
EXTT20=
EXTT21=
EXTT22=
EXTT23=
EXTT24=
EXTT25=
EXTT26=
EXTT27=
EXTT28=
PLAYORDER=
